<svg viewBox="0 0 512 512" xmlns="http://www.w3.org/2000/svg"><g fill="none" stroke-width="2"><path d="m480.8 140.56q2.83 6.75 5.72 13.52c11.64 27.24 18.03 56.09 19.32 85.79" stroke="#000756"/><path d="m505.84 239.87-115.06-114.93" stroke="#010a76"/><path d="m390.78 124.94q-7.71-9.69-19.11-12.7c-7.13-1.88-15.66-.78-23.08-1.16-.66-.03-1.18-.37-1.66-.73" stroke="#000756"/><path d="m346.93 110.35c-2.1-3.09-4.69-3.71-7.49-5.45-1.29-.81-2.19-2.21-3.33-3.23q-.51-.47-.54.22-.07 1.43.39 2.97.21.69-.51.77l-.93.1q-.49.05-.7.48-1.31 2.64-4.99 4" stroke="#010a76"/><path d="m328.83 110.21q-1.63.87-2.33.87-68.75.11-137.5.22-3 .01-6.16.21-.5.03-.91.31-.54.38-1.21.63-15.59 5.67-20.27 20.74-1.2 3.87-1.19 10.88.06 21.15-.13 42.16" stroke="#000756"/><path d="m159.13 186.23q-1.14.06-1.98-.97-.32-.4-.49.08-.34 1 .14 2.19" stroke="#010a76"/><path d="m156.8 187.53q-1.14 1.4-2.8 2.52-23.3 15.78-46.81 31.46a.95.94 73.4 0 0 -.42.79v165.68" stroke="#000756"/><path d="m106.77 387.98-2.14.24q-.61.06-.23.55.79 1.03 1.83.95" stroke="#010a76"/><path d="m106.23 389.72q.61 1.73.51 3.59-.03.49.46.51 3.18.12 3.21 1.18" stroke="#000756"/><path d="m110.41 395q51.18 51.26 102.24 102.35.56.56.56 1.1" stroke="#010a76"/><path d="m213.21 498.45q-48.89-7.81-90.75-32.91-50.51-30.28-83.11-80.26" stroke="#000756"/><g stroke="#010320"><path d="m346.93 110.35q-1.16.82-2.67-.44-4.75-3.96-9.18-.85-2.2 1.54-2.77 1.75-2.32.82-3.48-.6"/><path d="m390.78 124.94q4.93 10.24 4.66 19.71a.82.82 0 0 1 -.82.8l-44-.02a.35.35 0 0 0 -.35.35v41.48q0 .7.57 1.09l48.49 33.57q.35.25.38.67c.14 1.61-.21 3.15-.21 4.72q-.03 83.09 0 165.89a.75.75 0 0 1 -.73.75q-4.4.1-8.02.09-112.42-.24-274.5-.23-4.28 0-5.84 1.19"/><path d="m106.23 389.72.54-1.74"/><path d="m156.8 187.53q.56.19 2.33-1.3"/></g><path d="m329.48 117.08 8.95 8.95a.36.36 0 0 0 .51 0l6.05-6.05a5.01 4.84 45 0 0 -.12-6.97l-2.37-2.37a5.01 4.84 45 0 0 -6.97-.12l-6.05 6.05a.36.36 0 0 0 0 .51" stroke="#707071"/><path d="m347.74 116.79c.15 3.41-5.14 7.64-7.62 10.02a.58.57-45.3 0 0 0 .83l3.41 3.36a.7.69 43 0 0 1-.03q2.26-2.5 4.92-4.95c4.03-3.7 2.1-6.28-1.12-9.49q-.62-.62-.59.26" stroke="#645f5c"/><path d="m213.71 144.7c.32-7.56-1.94-14.39-7.17-19.84-15.98-16.66-41.53-4.73-41.54 17.26q0 59.79 0 123.32 0 .52.41.83l87.96 67.65q.45.35.89.01l22.48-17.19q.48-.36.66-.94.35-1.14 1.29-1.85 32.67-24.97 65.58-50.19a1.25 1.23 71.7 0 0 .49-.99v-116.8q0-.56-.56-.56l-11.18.01a1.72 1.71 22.4 0 0 -1.21.5q-25.05 24.78-52.22 52.28-.48.48-.9 1.03a1.21 1.21 0 0 1 -.53.39l-12.38 4.3q-3.11 1.08.18 1.08h27.79q1.2 0 1.92.96.32.42.24.88-.27 1.67-1.97 1.67l-61.16.02a1.4 1.38 63.8 0 1 -.86-.3q-.94-.73-.83-1.53.25-1.69 1.96-1.69l19.77-.03q.35 0 .47-.33l8.07-21.95q.17-.46.55-.76.42-.34.81-.72 17.55-17.41 35.93-35.75a.2.19-67 0 0 -.13-.33c-5.02-.09-10.02.3-15.04.3q-33.87-.04-69.07-.01-.74 0-.7-.73" stroke="#707071"/><path d="m206.39 117.38c7 5.07 11.92 13.37 12.66 22.14a.48.48 0 0 0 .48.44h83.94a1.67 1.66-67.4 0 0 1.18-.49l22.02-22.06q.46-.46-.18-.46h-119.96q-.74 0-.14.43" stroke="#645f5c"/><path d="m351.5 117.54c2.14 2.37 2.3 6.25-.12 8.69q-6.52 6.59-13.15 13.15-.57.57.24.57l50.81.01a.52.52 0 0 0 .51-.61c-2.23-12.45-11.78-22.18-24.8-22.35q-6.46-.08-13.24-.04-.78.01-.25.58" stroke="#645f5c"/><path d="m328.4475 118.2253a.42.42 0 0 0 -.5939 0l-6.7883 6.7883a.42.42 0 0 0 0 .5939l8.8672 8.8672a.42.42 0 0 0 .5939 0l6.7883-6.7883a.42.42 0 0 0 0-.5939z" stroke="#80311c"/><path d="m319.8536 126.6254a.27.27 0 0 0 -.3818 0l-56.3564 56.3564a.27.27 0 0 0 0 .3818l9.051 9.051a.27.27 0 0 0 .3818 0l56.3564-56.3564a.27.27 0 0 0 0-.3818z" stroke="#807546"/><path d="m342.579 132.7772a.31.31 0 0 0 -.0015-.4384l-3.775-3.7487a.31.31 0 0 0 -.4384.0015l-6.8631 6.9112a.31.31 0 0 0 .0015.4384l3.775 3.7487a.31.31 0 0 0 .4384-.0015z" stroke="#80311c"/><path d="m334.0505 141.3738a.41.41 0 0 0 0-.5798l-3.6345-3.6345a.41.41 0 0 0 -.5798 0l-56.1867 56.1867a.41.41 0 0 0 0 .5798l3.6345 3.6345a.41.41 0 0 0 .5798 0z" stroke="#7c5a19"/><path d="m259.55 197.25a.32.32 0 0 0 .33.08l10.62-3.73a.32.32 0 0 0 .12-.53l-8.13-8.15a.32.32 0 0 0 -.53.12l-3.75 10.68a.32.32 0 0 0 .08.33z" stroke="#645f5c"/><path d="m261.19 198.31a.32.32 0 0 0 -.12.53l3.72 3.6a.32.32 0 0 0 .33.07l10.47-3.69a.32.32 0 0 0 .12-.53l-3.61-3.6a.32.32 0 0 0 -.33-.07z" stroke="#645f5c"/><path d="m155.18 253.28a.34.34 0 0 0 .56-.26v-55.52a.34.34 0 0 0 -.53-.28l-37.22 25.01a.34.34 0 0 0 -.03.55z" stroke="#7b7723"/><path d="m352.3 197.28a.31.31 0 0 0 -.49.25v55.91a.31.31 0 0 0 .5.25l38.34-29.31a.31.31 0 0 0 -.01-.5z" stroke="#7b7723"/><path d="m262.85 202.69-4.66-4.63q-.52-.51-.76.17l-2.62 7.4q-.17.49.32.31l7.6-2.69a.34.34 0 0 0 .12-.56" stroke="#000756"/><path d="m113.89 235.21a.34.34 0 0 0 -.55.27v149.28a.34.34 0 0 0 .53.28l103.81-69.87a.34.34 0 0 0 .01-.55z" stroke="#807546"/><path d="m392.43 385.02a.31.31 0 0 0 .48-.25v-149.31a.31.31 0 0 0 -.5-.25l-103.79 79.4a.31.31 0 0 0 .02.5z" stroke="#807546"/><path d="m253.29 342.13-28.02-21.41a.64.64 0 0 0 -.76-.02l-96.44 66.11q-.73.5.16.5h250.23a.2.2 0 0 0 .12-.36l-95.54-66.34a.49.49 0 0 0 -.57.01l-28.16 21.51q-.51.39-1.02 0" stroke="#7b7723"/><path d="m317.43 226.33a1.75 1.75 0 0 0 -1.75-1.75h-122.02a1.75 1.75 0 0 0 -1.75 1.75v.06a1.75 1.75 0 0 0 1.75 1.75h122.02a1.75 1.75 0 0 0 1.75-1.75z" stroke="#707071"/><path d="m317.39 245.89a1.64 1.64 0 0 0 -1.64-1.64h-122.16a1.64 1.64 0 0 0 -1.64 1.64v.22a1.64 1.64 0 0 0 1.64 1.64h122.16a1.64 1.64 0 0 0 1.64-1.64z" stroke="#707071"/><path d="m317.41 265.45a1.59 1.59 0 0 0 -1.59-1.59h-122.3a1.59 1.59 0 0 0 -1.59 1.59v.28a1.59 1.59 0 0 0 1.59 1.59h122.3a1.59 1.59 0 0 0 1.59-1.59z" stroke="#707071"/><path d="m505.84 239.87q.6 7.61.44 12.13-.27 7.49-.32 14.99c-.03 3.55-.92 6.65-.98 10.51-.05 2.76-.97 5.3-.98 8.1 0 1.98-.74 4.07-1 6.05q-.31 2.28-.71 4.4-12.28 64.51-53.67 114.17c-34.64 41.55-81.38 71.15-134.53 84.3q-11.08 2.75-23.1 4.42-2.15.3-3.73.61c-2.66.53-5.17.33-7.76.86-4.06.83-8.3.54-12.43.92q-14.71 1.33-27.27.05c-4.32-.43-8.82-.06-12.91-.95-2.59-.57-5.08-.26-7.65-.81q-1.34-.29-3.03-.46-1.68-.17-3-.71" stroke="#010320"/></g><path d="m245.64 0h15.09q60.49 2.12 112.18 29.83 64.92 34.8 101.9 99.91 3.04 5.35 5.99 10.82 2.83 6.75 5.72 13.52c11.64 27.24 18.03 56.09 19.32 85.79l-115.06-114.93q-7.71-9.69-19.11-12.7c-7.13-1.88-15.66-.78-23.08-1.16-.66-.03-1.18-.37-1.66-.73-2.1-3.09-4.69-3.71-7.49-5.45-1.29-.81-2.19-2.21-3.33-3.23q-.51-.47-.54.22-.07 1.43.39 2.97.21.69-.51.77l-.93.1q-.49.05-.7.48-1.31 2.64-4.99 4-1.63.87-2.33.87-68.75.11-137.5.22-3 .01-6.16.21-.5.03-.91.31-.54.38-1.21.63-15.59 5.67-20.27 20.74-1.2 3.87-1.19 10.88.06 21.15-.13 42.16-1.14.06-1.98-.97-.32-.4-.49.08-.34 1 .14 2.19-1.14 1.4-2.8 2.52-23.3 15.78-46.81 31.46a.95.94 73.4 0 0 -.42.79v165.68l-2.14.24q-.61.06-.23.55.79 1.03 1.83.95.61 1.73.51 3.59-.03.49.46.51 3.18.12 3.21 1.18 51.18 51.26 102.24 102.35.56.56.56 1.1-48.89-7.81-90.75-32.91-50.51-30.28-83.11-80.26-11.63-18.36-19.76-37.61-17.93-42.5-19.59-89.31v-15.37q3.6-86.31 57.8-151.71 30.78-37.15 74.54-60.92 52.03-28.27 113.3-30.36z" fill="#000dac"/><path d="m346.93 110.35q-1.16.82-2.67-.44-4.75-3.96-9.18-.85-2.2 1.54-2.77 1.75-2.32.82-3.48-.6 3.68-1.36 4.99-4 .21-.43.7-.48l.93-.1q.72-.08.51-.77-.46-1.54-.39-2.97.03-.69.54-.22c1.14 1.02 2.04 2.42 3.33 3.23 2.8 1.74 5.39 2.36 7.49 5.45z" fill="#010640"/><path d="m346.93 110.35c.48.36 1 .7 1.66.73 7.42.38 15.95-.72 23.08 1.16q11.4 3.01 19.11 12.7 4.93 10.24 4.66 19.71a.82.82 0 0 1 -.82.8l-44-.02a.35.35 0 0 0 -.35.35v41.48q0 .7.57 1.09l48.49 33.57q.35.25.38.67c.14 1.61-.21 3.15-.21 4.72q-.03 83.09 0 165.89a.75.75 0 0 1 -.73.75q-4.4.1-8.02.09-112.42-.24-274.5-.23-4.28 0-5.84 1.19-.03-1.06-3.21-1.18-.49-.02-.46-.51.1-1.86-.51-3.59l.54-1.74v-165.68a.95.94 73.4 0 1 .42-.79q23.51-15.68 46.81-31.46 1.66-1.12 2.8-2.52.56.19 2.33-1.3.19-21.01.13-42.16-.01-7.01 1.19-10.88 4.68-15.07 20.27-20.74.67-.25 1.21-.63.41-.28.91-.31 3.16-.2 6.16-.21 68.75-.11 137.5-.22.7 0 2.33-.87 1.16 1.42 3.48.6.57-.21 2.77-1.75 4.43-3.11 9.18.85 1.51 1.26 2.67.44zm-17.45 6.73 8.95 8.95a.36.36 0 0 0 .51 0l6.05-6.05a5.01 4.84 45 0 0 -.12-6.97l-2.37-2.37a5.01 4.84 45 0 0 -6.97-.12l-6.05 6.05a.36.36 0 0 0 0 .51zm18.26-.29c.15 3.41-5.14 7.64-7.62 10.02a.58.57-45.3 0 0 0 .83l3.41 3.36a.7.69 43 0 0 1-.03q2.26-2.5 4.92-4.95c4.03-3.7 2.1-6.28-1.12-9.49q-.62-.62-.59.26zm-134.03 27.91c.32-7.56-1.94-14.39-7.17-19.84-15.98-16.66-41.53-4.73-41.54 17.26q0 59.79 0 123.32 0 .52.41.83l87.96 67.65q.45.35.89.01l22.48-17.19q.48-.36.66-.94.35-1.14 1.29-1.85 32.67-24.97 65.58-50.19a1.25 1.23 71.7 0 0 .49-.99v-116.8q0-.56-.56-.56l-11.18.01a1.72 1.71 22.4 0 0 -1.21.5q-25.05 24.78-52.22 52.28-.48.48-.9 1.03a1.21 1.21 0 0 1 -.53.39l-12.38 4.3q-3.11 1.08.18 1.08h27.79q1.2 0 1.92.96.32.42.24.88-.27 1.67-1.97 1.67l-61.16.02a1.4 1.38 63.8 0 1 -.86-.3q-.94-.73-.83-1.53.25-1.69 1.96-1.69l19.77-.03q.35 0 .47-.33l8.07-21.95q.17-.46.55-.76.42-.34.81-.72 17.55-17.41 35.93-35.75a.2.19-67 0 0 -.13-.33c-5.02-.09-10.02.3-15.04.3q-33.87-.04-69.07-.01-.74 0-.7-.73zm-7.32-27.32c7 5.07 11.92 13.37 12.66 22.14a.48.48 0 0 0 .48.44h83.94a1.67 1.66-67.4 0 0 1.18-.49l22.02-22.06q.46-.46-.18-.46h-119.96q-.74 0-.14.43zm145.11.16c2.14 2.37 2.3 6.25-.12 8.69q-6.52 6.59-13.15 13.15-.57.57.24.57l50.81.01a.52.52 0 0 0 .51-.61c-2.23-12.45-11.78-22.18-24.8-22.35q-6.46-.08-13.24-.04-.78.01-.25.58zm-23.0525.6853a.42.42 0 0 0 -.5939 0l-6.7883 6.7883a.42.42 0 0 0 0 .5939l8.8672 8.8672a.42.42 0 0 0 .5939 0l6.7883-6.7883a.42.42 0 0 0 0-.5939zm-8.5939 8.4001a.27.27 0 0 0 -.3818 0l-56.3564 56.3564a.27.27 0 0 0 0 .3818l9.051 9.051a.27.27 0 0 0 .3818 0l56.3564-56.3564a.27.27 0 0 0 0-.3818zm22.7254 6.1518a.31.31 0 0 0 -.0015-.4384l-3.775-3.7487a.31.31 0 0 0 -.4384.0015l-6.8631 6.9112a.31.31 0 0 0 .0015.4384l3.775 3.7487a.31.31 0 0 0 .4384-.0015zm-8.5285 8.5966a.41.41 0 0 0 0-.5798l-3.6345-3.6345a.41.41 0 0 0 -.5798 0l-56.1867 56.1867a.41.41 0 0 0 0 .5798l3.6345 3.6345a.41.41 0 0 0 .5798 0zm-74.5005 55.8762a.32.32 0 0 0 .33.08l10.62-3.73a.32.32 0 0 0 .12-.53l-8.13-8.15a.32.32 0 0 0 -.53.12l-3.75 10.68a.32.32 0 0 0 .08.33zm1.64 1.06a.32.32 0 0 0 -.12.53l3.72 3.6a.32.32 0 0 0 .33.07l10.47-3.69a.32.32 0 0 0 .12-.53l-3.61-3.6a.32.32 0 0 0 -.33-.07zm-106.01 54.97a.34.34 0 0 0 .56-.26v-55.52a.34.34 0 0 0 -.53-.28l-37.22 25.01a.34.34 0 0 0 -.03.55zm197.12-56a.31.31 0 0 0 -.49.25v55.91a.31.31 0 0 0 .5.25l38.34-29.31a.31.31 0 0 0 -.01-.5zm-89.45 5.41-4.66-4.63q-.52-.51-.76.17l-2.62 7.4q-.17.49.32.31l7.6-2.69a.34.34 0 0 0 .12-.56zm-148.96 32.52a.34.34 0 0 0 -.55.27v149.28a.34.34 0 0 0 .53.28l103.81-69.87a.34.34 0 0 0 .01-.55zm278.54 149.81a.31.31 0 0 0 .48-.25v-149.31a.31.31 0 0 0 -.5-.25l-103.79 79.4a.31.31 0 0 0 .02.5zm-139.14-42.89-28.02-21.41a.64.64 0 0 0 -.76-.02l-96.44 66.11q-.73.5.16.5h250.23a.2.2 0 0 0 .12-.36l-95.54-66.34a.49.49 0 0 0 -.57.01l-28.16 21.51q-.51.39-1.02 0z"/><path d="m329.48 117.08a.36.36 0 0 1 0-.51l6.05-6.05a5.01 4.84 45 0 1 6.97.12l2.37 2.37a5.01 4.84 45 0 1 .12 6.97l-6.05 6.05a.36.36 0 0 1 -.51 0z" fill="#e0e0e2"/><path d="m340.12 126.81c2.48-2.38 7.77-6.61 7.62-10.02q-.03-.88.59-.26c3.22 3.21 5.15 5.79 1.12 9.49q-2.66 2.45-4.92 4.95a.7.69 43 0 1 -1 .03l-3.41-3.36a.58.57-45.3 0 1 0-.83z" fill="#c8beb7"/><path d="m214.41 145.43q35.2-.03 69.07.01c5.02 0 10.02-.39 15.04-.3a.2.19-67 0 1 .13.33q-18.38 18.34-35.93 35.75-.39.38-.81.72-.38.3-.55.76l-8.07 21.95q-.12.33-.47.33l-19.77.03q-1.71 0-1.96 1.69-.11.8.83 1.53a1.4 1.38 63.8 0 0 .86.3l61.16-.02q1.7 0 1.97-1.67.08-.46-.24-.88-.72-.96-1.92-.96h-27.79q-3.29 0-.18-1.08l12.38-4.3a1.21 1.21 0 0 0 .53-.39q.42-.55.9-1.03 27.17-27.5 52.22-52.28a1.72 1.71 22.4 0 1 1.21-.5l11.18-.01q.56 0 .56.56v116.8a1.25 1.23 71.7 0 1 -.49.99q-32.91 25.22-65.58 50.19-.94.71-1.29 1.85-.18.58-.66.94l-22.48 17.19q-.44.34-.89-.01l-87.96-67.65q-.41-.31-.41-.83 0-63.53 0-123.32c.01-21.99 25.56-33.92 41.54-17.26 5.23 5.45 7.49 12.28 7.17 19.84q-.04.73.7.73zm103.02 80.9a1.75 1.75 0 0 0 -1.75-1.75h-122.02a1.75 1.75 0 0 0 -1.75 1.75v.06a1.75 1.75 0 0 0 1.75 1.75h122.02a1.75 1.75 0 0 0 1.75-1.75zm-.04 19.56a1.64 1.64 0 0 0 -1.64-1.64h-122.16a1.64 1.64 0 0 0 -1.64 1.64v.22a1.64 1.64 0 0 0 1.64 1.64h122.16a1.64 1.64 0 0 0 1.64-1.64zm.02 19.56a1.59 1.59 0 0 0 -1.59-1.59h-122.3a1.59 1.59 0 0 0 -1.59 1.59v.28a1.59 1.59 0 0 0 1.59 1.59h122.3a1.59 1.59 0 0 0 1.59-1.59z" fill="#e0e0e2"/><path d="m219.05 139.52c-.74-8.77-5.66-17.07-12.66-22.14q-.6-.43.14-.43h119.96q.64 0 .18.46l-22.02 22.06a1.67 1.66-67.4 0 1 -1.18.49h-83.94a.48.48 0 0 1 -.48-.44z" fill="#c8beb7"/><path d="m351.38 126.23c2.42-2.44 2.26-6.32.12-8.69q-.53-.57.25-.58 6.78-.04 13.24.04c13.02.17 22.57 9.9 24.8 22.35a.52.52 0 0 1 -.51.61l-50.81-.01q-.81 0-.24-.57 6.63-6.56 13.15-13.15z" fill="#c8beb7"/><rect fill="#ff6137" height="13.38" rx=".42" transform="matrix(.70710678 -.70710678 .70710678 .70710678 329.19 126.35)" width="10.44" x="-5.22" y="-6.69"/><path d="m390.78 124.94 115.06 114.93q.6 7.61.44 12.13-.27 7.49-.32 14.99c-.03 3.55-.92 6.65-.98 10.51-.05 2.76-.97 5.3-.98 8.1 0 1.98-.74 4.07-1 6.05q-.31 2.28-.71 4.4-12.28 64.51-53.67 114.17c-34.64 41.55-81.38 71.15-134.53 84.3q-11.08 2.75-23.1 4.42-2.15.3-3.73.61c-2.66.53-5.17.33-7.76.86-4.06.83-8.3.54-12.43.92q-14.71 1.33-27.27.05c-4.32-.43-8.82-.06-12.91-.95-2.59-.57-5.08-.26-7.65-.81q-1.34-.29-3.03-.46-1.68-.17-3-.71 0-.54-.56-1.1-51.06-51.09-102.24-102.35 1.56-1.19 5.84-1.19 162.08-.01 274.5.23 3.62.01 8.02-.09a.75.75 0 0 0 .73-.75q-.03-82.8 0-165.89c0-1.57.35-3.11.21-4.72q-.03-.42-.38-.67l-48.49-33.57q-.57-.39-.57-1.09v-41.48a.35.35 0 0 1 .35-.35l44 .02a.82.82 0 0 0 .82-.8q.27-9.47-4.66-19.71z" fill="#010640"/><rect fill="#ffe98b" height="13.34" rx=".27" transform="matrix(.70710678 -.70710678 .70710678 .70710678 296.01 159.52)" width="80.24" x="-40.12" y="-6.67"/><rect fill="#ff6137" height="10.36" rx=".31" transform="matrix(.70957074 .70463421 -.70463421 .70957074 337.04 134.14)" width="5.94" x="-2.97" y="-5.18"/><rect fill="#f8b332" height="80.28" rx=".41" transform="matrix(.70710678 .70710678 -.70710678 .70710678 303.85 167.36)" width="5.96" x="-2.98" y="-40.14"/><path d="m480.8 140.56q29.07 52.69 31.2 113.33v14.86q-2 56.07-26.3 103.92-21.63 42.6-55.42 73.11-69.13 62.44-164.03 66.22h-14.59q-55.05-1.82-103.11-25.07-65.93-31.9-105.48-94.74-2.51-3.99-3.72-6.91 32.6 49.98 83.11 80.26 41.86 25.1 90.75 32.91 1.32.54 3 .71 1.69.17 3.03.46c2.57.55 5.06.24 7.65.81 4.09.89 8.59.52 12.91.95q12.56 1.28 27.27-.05c4.13-.38 8.37-.09 12.43-.92 2.59-.53 5.1-.33 7.76-.86q1.58-.31 3.73-.61 12.02-1.67 23.1-4.42c53.15-13.15 99.89-42.75 134.53-84.3q41.39-49.66 53.67-114.17.4-2.12.71-4.4c.26-1.98 1-4.07 1-6.05.01-2.8.93-5.34.98-8.1.06-3.86.95-6.96.98-10.51q.05-7.5.32-14.99.16-4.52-.44-12.13c-1.29-29.7-7.68-58.55-19.32-85.79q-2.89-6.77-5.72-13.52z"/><path d="m159.13 186.23q-1.77 1.49-2.33 1.3-.48-1.19-.14-2.19.17-.48.49-.08.84 1.03 1.98.97z" fill="#010640"/><path d="m259.55 197.25-1.26-1.2a.32.32 0 0 1 -.08-.33l3.75-10.68a.32.32 0 0 1 .53-.12l8.13 8.15a.32.32 0 0 1 -.12.53l-10.62 3.73a.32.32 0 0 1 -.33-.08z" fill="#c8beb7"/><path d="m261.19 198.31 10.58-3.69a.32.32 0 0 1 .33.07l3.61 3.6a.32.32 0 0 1 -.12.53l-10.47 3.69a.32.32 0 0 1 -.33-.07l-3.72-3.6a.32.32 0 0 1 .12-.53z" fill="#c8beb7"/><path d="m155.18 253.28-37.22-30.5a.34.34 0 0 1 .03-.55l37.22-25.01a.34.34 0 0 1 .53.28v55.52a.34.34 0 0 1 -.56.26z" fill="#f6ed46"/><path d="m352.3 197.28 38.34 26.6a.31.31 0 0 1 .01.5l-38.34 29.31a.31.31 0 0 1 -.5-.25v-55.91a.31.31 0 0 1 .49-.25z" fill="#f6ed46"/><path d="m258.19 198.06 4.66 4.63a.34.34 0 0 1 -.12.56l-7.6 2.69q-.49.18-.32-.31l2.62-7.4q.24-.68.76-.17z" fill="#000dac"/><rect height="3.56" rx="1.75" width="125.52" x="191.91" y="224.58"/><path d="m113.89 235.21 103.8 79.41a.34.34 0 0 1 -.01.55l-103.81 69.87a.34.34 0 0 1 -.53-.28v-149.28a.34.34 0 0 1 .55-.27z" fill="#ffe98b"/><path d="m392.43 385.02-103.79-69.91a.31.31 0 0 1 -.02-.5l103.79-79.4a.31.31 0 0 1 .5.25v149.31a.31.31 0 0 1 -.48.25z" fill="#ffe98b"/><rect height="3.5" rx="1.64" width="125.44" x="191.95" y="244.25"/><rect height="3.46" rx="1.59" width="125.48" x="191.93" y="263.86"/><path d="m254.31 342.13 28.16-21.51a.49.49 0 0 1 .57-.01l95.54 66.34a.2.2 0 0 1 -.12.36h-250.23q-.89 0-.16-.5l96.44-66.11a.64.64 0 0 1 .76.02l28.02 21.41q.51.39 1.02 0z" fill="#f6ed46"/><path d="m106.77 387.98-.54 1.74q-1.04.08-1.83-.95-.38-.49.23-.55z" fill="#010640"/></svg>